<?xml version="1.0" encoding="UTF-8" standalone="no"?>
<!DOCTYPE svg PUBLIC "-//W3C//DTD SVG 1.1//EN" "http://www.w3.org/Graphics/SVG/1.1/DTD/svg11.dtd">
<svg width="100%" height="100%" viewBox="0 0 1361 814" version="1.1" xmlns="http://www.w3.org/2000/svg" xmlns:xlink="http://www.w3.org/1999/xlink" xml:space="preserve" xmlns:serif="http://www.serif.com/" style="fill-rule:evenodd;clip-rule:evenodd;stroke-linejoin:round;stroke-miterlimit:2;">
    <g transform="matrix(4.16667,0,0,4.16667,-384,-301)">
        <path d="M142.763,205.859C142.763,200.271 147.294,195.74 152.883,195.74C158.472,195.74 163.003,200.271 163.003,205.859C163.003,211.448 158.472,215.979 152.883,215.979C147.294,215.979 142.763,211.448 142.763,205.859Z" style="fill:rgb(22,21,26);fill-rule:nonzero;"/>
        <path d="M101.791,205.859C101.791,177.642 124.665,154.767 152.883,154.767C181.101,154.767 203.976,177.642 203.976,205.859C203.976,234.077 181.101,256.952 152.883,256.952C124.665,256.952 101.791,234.077 101.791,205.859ZM96.212,205.859C96.212,237.158 121.585,262.53 152.883,262.53C184.181,262.53 209.554,237.158 209.554,205.859C209.554,174.562 184.181,149.189 152.883,149.189C121.585,149.189 96.212,174.562 96.212,205.859Z" style="fill:rgb(5,3,10);fill-rule:nonzero;"/>
        <path d="M206.924,222.638C212.77,201.72 205.088,173.021 185.147,159.295C184.014,158.516 182.862,157.781 181.697,157.093L181.701,157.058C181.639,157.021 181.577,156.985 181.515,156.948C182.285,155.259 183.051,153.566 183.814,151.869C185.337,152.743 186.836,153.686 188.31,154.701C188.623,154.916 188.933,155.133 189.242,155.352C197.999,161.56 204.91,169.056 209.607,177.277C210.393,178.651 211.116,180.046 211.776,181.457C214.798,187.923 216.486,194.758 216.676,201.704C216.789,205.86 216.366,210.055 215.372,214.237C214.4,218.324 211.205,221.467 207.153,222.572L207.039,222.605L206.924,222.638ZM175.554,153.91C175.491,153.883 175.427,153.855 175.364,153.828L175.335,153.852C168.138,150.732 160.565,149.211 153.128,149.211C147.393,149.211 141.74,150.115 136.4,151.888L136.353,151.834L136.307,151.789C136.272,151.754 136.239,151.719 136.206,151.683C134.238,149.567 135.242,146.086 138.076,145.359C142.131,144.319 146.319,143.715 150.559,143.557C150.641,143.554 150.725,143.551 150.807,143.549C151.469,143.527 152.133,143.516 152.797,143.516C161.181,143.516 169.719,145.258 177.82,148.835C177.07,150.527 176.314,152.219 175.554,153.91Z" style="fill:rgb(241,103,108);"/>
        <path d="M105.354,205.859C105.354,179.61 126.634,158.331 152.883,158.331C179.133,158.331 200.412,179.61 200.412,205.859C200.412,232.109 179.133,253.389 152.883,253.389C126.634,253.389 105.354,232.109 105.354,205.859ZM100.165,205.859C100.165,234.975 123.768,258.577 152.883,258.577C181.998,258.577 205.601,234.975 205.601,205.859C205.601,176.745 181.998,153.142 152.883,153.142C123.768,153.142 100.165,176.745 100.165,205.859Z" style="fill:rgb(179,172,177);fill-rule:nonzero;"/>
        <path d="M279.707,188.517L261.436,206.788L264.703,210.057L282.975,191.785C283.877,190.883 283.877,189.419 282.975,188.517C282.072,187.615 280.609,187.615 279.707,188.517Z" style="fill:rgb(5,3,10);fill-rule:nonzero;"/>
        <path d="M287.624,189.248L273.5,189.248C273.129,189.248 272.827,189.549 272.827,189.921L272.827,192.145C272.827,192.517 273.129,192.818 273.5,192.818L287.624,192.818C287.996,192.818 288.297,192.517 288.297,192.145L288.297,189.921C288.297,189.549 287.996,189.248 287.624,189.248Z" style="fill:rgb(5,3,10);fill-rule:nonzero;"/>
        <path d="M246.326,196.142L251.404,194.333C253.202,193.693 254.403,191.99 254.403,190.082L254.403,186.848L255.035,184.385C255.332,183.227 255.027,181.997 254.224,181.112C249.216,175.599 231.116,155.856 227.406,154.43C223.091,152.77 212.691,153.323 212.691,153.323L210.367,155.204L246.326,196.142Z" style="fill:rgb(255,207,78);fill-rule:nonzero;"/>
        <path d="M254.534,186.337L218.137,153.248C219.758,153.278 221.543,153.361 223.201,153.547L254.534,186.337Z" style="fill:rgb(241,103,108);"/>
        <path d="M254.308,191.005C254.371,190.705 254.403,190.396 254.403,190.082L254.403,186.848L254.534,186.337L254.403,186.848L254.403,190.082C254.403,190.396 254.371,190.705 254.308,191.005ZM212.691,153.323L212.692,153.323L212.691,153.323ZM212.693,153.323L212.694,153.323L212.693,153.323ZM212.695,153.323L212.697,153.323L212.695,153.323ZM212.698,153.323C212.743,153.321 213.007,153.307 213.436,153.292C213.006,153.307 212.743,153.321 212.698,153.323ZM213.441,153.291L213.446,153.291L213.441,153.291Z" style="fill:rgb(104,195,217);"/>
        <path d="M247.463,195.737L236.176,184.586L210.367,155.204L212.691,153.323L212.698,153.323C212.743,153.321 213.006,153.307 213.436,153.292C213.438,153.291 213.439,153.291 213.441,153.291L213.446,153.291C213.637,153.284 213.86,153.277 214.111,153.27C221.784,160.806 241.121,179.755 244.436,182.61C248.201,185.852 252.621,185.778 254.534,186.337L254.403,186.848L254.403,190.082C254.403,190.396 254.371,190.705 254.308,191.005C254.058,192.202 253.329,193.25 252.295,193.901C252.019,194.075 251.721,194.221 251.404,194.333L247.463,195.737Z" style="fill:rgb(217,174,70);fill-rule:nonzero;"/>
        <path d="M264.869,215.566L259.337,213.567L286.476,138.478L292.007,140.478L264.869,215.566Z" style="fill:rgb(241,103,108);"/>
        <path d="M261.153,217.106L182.936,138.908L189.174,132.667L267.393,210.866L261.153,217.106Z" style="fill:rgb(241,103,108);"/>
        <path d="M255.688,199.164C252.173,199.245 246.874,199.307 246.079,198.975C244.873,198.473 186.805,139.902 186.805,139.902C186.805,139.902 186.303,141.208 184.494,143.72C183.082,145.682 179.533,147.577 178.043,148.315C177.963,148.497 177.881,148.68 177.8,148.862L183.59,151.757C183.59,151.757 183.685,151.766 183.847,151.782C184.195,151.007 184.547,150.237 184.895,149.46L184.96,149.314L185.011,149.16L187.026,142.997L253.142,209.095C253.459,208.557 253.513,208.017 253.513,208.017C253.513,208.017 257.331,207.213 260.243,205.907C260.829,205.646 261.118,205.212 261.213,204.688L255.688,199.164Z" style="fill:rgb(241,103,108);fill-rule:nonzero;"/>
        <path d="M154.032,207.588C153.571,207.588 153.104,207.46 152.687,207.193C151.581,206.485 151.204,205.039 151.84,203.892C153.059,201.689 154.243,199.437 155.394,197.158C156.339,195.287 157.263,193.397 158.168,191.502C160.552,186.593 162.882,181.645 165.183,176.677C166.46,173.893 167.745,171.113 169.023,168.328C169.494,167.301 169.963,166.274 170.431,165.246C170.886,164.246 171.34,163.245 171.79,162.243C173.825,163.126 175.786,164.146 177.661,165.293C177.363,165.926 177.064,166.559 176.765,167.191C176.281,168.214 175.796,169.237 175.31,170.259C173.854,173.316 172.381,176.367 170.87,179.401C168.438,184.35 165.905,189.255 163.29,194.131L161.285,197.768L159.222,201.386L159.032,201.704L157.075,204.98C156.764,205.474 156.445,205.967 156.123,206.459C155.645,207.19 154.846,207.587 154.032,207.588ZM181.515,156.948C179.597,155.823 177.607,154.808 175.554,153.91C176.314,152.219 177.07,150.527 177.82,148.835C177.886,148.687 177.951,148.538 178.017,148.39C178.239,147.888 178.46,147.387 178.68,146.886L182.571,135.315C183.919,131.417 185.235,127.508 186.616,123.621C187.863,120.046 189.14,116.482 190.425,112.92L190.425,112.935L195.625,115.57C195.66,115.522 195.713,115.422 195.781,115.281C194.736,118.727 193.683,122.171 192.602,125.605C191.387,129.548 190.105,133.468 188.856,137.4L185.011,149.16L184.96,149.314L184.895,149.46C184.758,149.766 184.621,150.071 184.485,150.376C184.261,150.874 184.038,151.372 183.814,151.869C183.051,153.566 182.285,155.259 181.515,156.948ZM197.427,101.134L197.371,101.115C197.38,101.118 197.39,101.121 197.399,101.125C197.408,101.128 197.418,101.131 197.427,101.134Z" style="fill:rgb(241,103,108);"/>
        <path d="M180.389,167.094C179.502,166.464 178.592,165.863 177.661,165.293L177.662,165.293C178.592,165.862 179.502,166.463 180.389,167.094Z" style="fill:rgb(79,135,149);fill-rule:nonzero;"/>
        <path d="M181.141,161.347C180.719,161.079 180.291,160.815 179.861,160.559C180.41,159.366 180.957,158.173 181.501,156.979C181.566,157.017 181.631,157.055 181.697,157.093L181.141,161.347Z" style="fill:rgb(0,1,4);fill-rule:nonzero;"/>
        <path d="M181.697,157.093C181.631,157.055 181.566,157.017 181.501,156.979C181.505,156.968 181.51,156.958 181.515,156.948C181.577,156.985 181.639,157.021 181.701,157.058L181.697,157.093Z" style="fill:url(#_Linear1);"/>
        <path d="M180.389,167.094C179.502,166.463 178.592,165.862 177.662,165.293C177.786,165.029 177.91,164.766 178.034,164.502C178.647,163.188 179.255,161.874 179.861,160.559C180.291,160.815 180.719,161.079 181.141,161.347L180.389,167.094Z" style="fill:rgb(106,103,107);fill-rule:nonzero;"/>
        <path d="M171.79,162.243C170.4,161.64 168.974,161.101 167.519,160.63L167.522,160.628C168.977,161.098 170.402,161.637 171.791,162.24C171.791,162.241 171.791,162.242 171.79,162.243Z" style="fill:rgb(79,135,149);fill-rule:nonzero;"/>
        <path d="M173.931,157.511C173.3,157.236 172.667,156.975 172.023,156.724L175.335,153.852C175.404,153.882 175.471,153.911 175.54,153.941C175.005,155.132 174.469,156.322 173.931,157.511Z" style="fill:rgb(0,1,4);fill-rule:nonzero;"/>
        <path d="M175.54,153.941C175.471,153.911 175.404,153.882 175.335,153.852L175.364,153.828C175.427,153.855 175.491,153.883 175.554,153.91C175.549,153.921 175.545,153.931 175.54,153.941Z" style="fill:url(#_Linear2);"/>
        <path d="M171.791,162.24C170.402,161.637 168.977,161.098 167.522,160.628L172.023,156.724C172.667,156.975 173.3,157.236 173.931,157.511C173.294,158.92 172.657,160.327 172.019,161.734C171.943,161.903 171.867,162.072 171.791,162.24Z" style="fill:rgb(106,103,107);fill-rule:nonzero;"/>
        <path d="M177.661,165.293C175.786,164.146 173.825,163.126 171.79,162.243C171.791,162.242 171.791,162.241 171.791,162.24C171.867,162.072 171.943,161.903 172.019,161.734C172.657,160.327 173.294,158.92 173.931,157.511C174.469,156.322 175.005,155.132 175.54,153.941C175.545,153.931 175.549,153.921 175.554,153.91C177.607,154.808 179.597,155.823 181.515,156.948C181.51,156.958 181.505,156.968 181.501,156.979C180.957,158.173 180.41,159.366 179.861,160.559C179.255,161.874 178.647,163.188 178.034,164.502C177.91,164.766 177.786,165.029 177.662,165.293L177.661,165.293Z" style="fill:url(#_Linear3);"/>
        <path d="M175.618,153.884L171.93,161.693L165.051,176.614L161.587,184.053C161.015,185.295 160.417,186.522 159.836,187.758C159.251,188.992 158.676,190.233 158.074,191.454L156.294,195.135L154.479,198.787L152.619,202.393C152.468,202.697 152.306,202.989 152.143,203.28L151.659,204.158C151.117,205.15 151.436,206.393 152.389,207.002L152.994,207.389C153.98,208.02 155.291,207.746 155.943,206.773C156.338,206.184 156.729,205.593 157.104,204.997C157.838,203.811 158.572,202.618 159.289,201.423L161.372,197.814C162.053,196.606 162.719,195.394 163.384,194.179C164.056,192.966 164.696,191.744 165.347,190.524C165.998,189.305 166.639,188.08 167.267,186.852L169.158,183.168L171.002,179.465C172.229,176.995 173.441,174.52 174.622,172.029C175.211,170.784 175.814,169.545 176.389,168.294L178.123,164.543C179.259,162.034 180.367,159.45 181.461,156.922C179.135,155.924 178.207,154.891 175.618,153.884Z" style="fill:rgb(179,172,177);fill-rule:nonzero;"/>
        <path d="M268.241,174.303L268.242,174.304L268.241,174.303ZM275.241,181.695C271.536,181.585 266.709,181.25 264.755,180.273C263.854,179.822 263.139,179.226 245.873,163.054C231.485,149.577 207.405,127.021 204.222,125.217C199.689,122.971 192.015,122.012 191.938,122.002L192.775,115.121C193.137,115.164 201.696,116.228 207.342,119.027C210.359,120.523 223.699,132.784 250.612,157.994C258.269,165.166 266.171,172.568 267.981,174.093C269.199,174.398 272.741,174.685 275.445,174.765L275.241,181.695Z" style="fill:rgb(241,103,108);"/>
        <path d="M272.728,179.471C272.728,179.471 266.422,179.549 264.924,178.288C263.427,177.027 209.198,125.793 205.414,123.902C201.631,122.01 194.064,120.276 193.354,119.803L190.044,133.597L190.1,133.513C190.944,130.88 191.788,128.248 192.602,125.605C192.953,124.491 193.295,123.373 193.642,122.255C196.178,122.671 200.995,123.618 204.222,125.217C207.405,127.021 231.485,149.577 245.873,163.054C263.139,179.226 263.854,179.822 264.755,180.273C265.997,180.895 268.401,181.255 270.939,181.465L263.946,200.815C264.152,201.755 264.293,202.407 264.293,202.407L272.728,179.471Z" style="fill:rgb(241,103,108);fill-rule:nonzero;"/>
        <path d="M292.194,139.96L299.111,120.821L293.58,118.822L286.662,137.961L292.194,139.96Z" style="fill:rgb(179,172,177);fill-rule:nonzero;"/>
        <path d="M296.768,127.305L299.111,120.821L296.768,127.305Z" style="fill:rgb(104,195,217);fill-rule:nonzero;"/>
        <path d="M295.942,129.59L296.768,127.305L295.942,129.59Z" style="fill:rgb(214,211,212);fill-rule:nonzero;"/>
        <path d="M295.942,129.59C294.232,128.591 292.442,127.538 290.781,126.566L293.58,118.822L299.111,120.821L296.768,127.305L295.942,129.59Z" style="fill:rgb(155,147,152);fill-rule:nonzero;"/>
        <path d="M286.262,139.167L291.704,141.13C291.947,141.218 292.216,141.092 292.304,140.849L292.828,139.395C292.916,139.151 292.79,138.883 292.547,138.795L287.104,136.831C286.861,136.743 286.593,136.869 286.505,137.112L285.98,138.567C285.893,138.811 286.019,139.079 286.262,139.167Z" style="fill:rgb(51,50,55);fill-rule:nonzero;"/>
        <path d="M286.497,137.932C286.641,137.534 287.079,137.328 287.477,137.472C287.874,137.615 288.08,138.054 287.937,138.451C287.793,138.849 287.354,139.055 286.957,138.911C286.56,138.768 286.354,138.33 286.497,137.932Z" style="fill:rgb(179,172,177);fill-rule:nonzero;"/>
        <path d="M312.439,125.124C313.745,125.231 314.964,124.46 315.423,123.234C316.385,120.668 317.375,116.372 314.323,114.313C309.811,111.27 274.806,109.779 273.104,113.706C272.32,115.512 271.862,117.353 271.596,118.814C271.313,120.366 272.426,121.824 273.998,121.953L312.439,125.124Z" style="fill:rgb(51,50,55);fill-rule:nonzero;"/>
        <path d="M350.149,216.524C350.149,213.949 352.237,211.861 354.813,211.861C357.389,211.861 359.477,213.949 359.477,216.524C359.477,219.101 357.389,221.188 354.813,221.188C352.237,221.188 350.149,219.101 350.149,216.524Z" style="fill:rgb(22,21,26);fill-rule:nonzero;"/>
        <path d="M349.944,229.967C349.944,228.338 351.265,227.018 352.893,227.018C354.521,227.018 355.842,228.338 355.842,229.967C355.842,231.596 354.521,232.916 352.893,232.916C351.265,232.916 349.944,231.596 349.944,229.967Z" style="fill:rgb(22,21,26);fill-rule:nonzero;"/>
        <path d="M343.788,205.859C343.788,200.271 348.319,195.74 353.908,195.74C359.497,195.74 364.028,200.271 364.028,205.859C364.028,211.448 359.497,215.979 353.908,215.979C348.319,215.979 343.788,211.448 343.788,205.859Z" style="fill:rgb(22,21,26);fill-rule:nonzero;"/>
        <path d="M302.815,205.859C302.815,177.642 325.69,154.767 353.908,154.767C382.126,154.767 405.001,177.642 405.001,205.859C405.001,234.077 382.126,256.952 353.908,256.952C325.69,256.952 302.815,234.077 302.815,205.859ZM297.238,205.859C297.238,237.158 322.61,262.53 353.908,262.53C385.206,262.53 410.578,237.157 410.578,205.859C410.578,174.562 385.206,149.189 353.908,149.189C322.61,149.189 297.238,174.562 297.238,205.859Z" style="fill:rgb(5,3,10);fill-rule:nonzero;"/>
        <path d="M309.319,170.667L309.256,170.655C306.331,170.114 305.112,166.599 307.067,164.356C318.127,151.668 334.927,143.571 353.743,143.571C379.912,143.571 401.569,156.033 409.79,177.271C411.307,181.188 410.457,185.588 407.746,188.795L407.595,188.979C400.551,168.434 377.951,149.148 353.743,149.148C335.435,149.148 319.242,157.652 309.389,170.685L309.319,170.667Z" style="fill:rgb(28,50,97);"/>
        <path d="M306.379,205.859C306.379,179.61 327.659,158.331 353.908,158.331C380.158,158.331 401.438,179.61 401.438,205.859C401.438,232.109 380.158,253.389 353.908,253.389C327.659,253.389 306.379,232.109 306.379,205.859ZM301.19,205.859C301.19,234.975 324.793,258.577 353.908,258.577C383.023,258.577 406.626,234.975 406.626,205.859C406.626,176.745 383.023,153.142 353.908,153.142C324.793,153.142 301.19,176.745 301.19,205.859Z" style="fill:rgb(179,172,177);fill-rule:nonzero;"/>
        <path d="M298.434,216.429C288.655,216.429 277.043,216.175 263.174,215.592L263.359,211.185C333.219,214.12 344.624,208.767 352.715,204.8C339.115,190.595 286.62,147.297 286.09,146.861L288.896,143.456C291.076,145.253 342.45,187.627 356.034,201.888C356.983,202.884 357.388,204.232 357.146,205.59C356.905,206.929 356.033,208.086 354.813,208.685C347.941,212.055 339.019,216.428 298.434,216.429Z" style="fill:rgb(241,103,108);"/>
        <path d="M269.727,202.127L288.869,149.16C292.46,152.136 299.195,157.738 307.06,164.369L307.067,164.356L310.105,161.154L310.045,161.104C309.435,161.444 307.76,162.303 306.395,162.303C304.692,162.303 288.039,147.23 288.039,147.23L267.617,202.418L269.727,202.127Z" style="fill:rgb(241,103,108);fill-rule:nonzero;"/>
        <path d="M249.646,201.308C249.646,201.308 262.047,199.351 263.255,199.351C270.893,199.351 277.085,205.543 277.085,213.181C277.085,220.819 270.893,227.012 263.255,227.012C261.901,227.012 249.646,225.055 249.646,225.055C242.786,223.581 237.772,219.738 237.772,213.181C237.772,206.623 243.339,202.56 249.646,201.308Z" style="fill:rgb(241,103,108);"/>
        <path d="M260.375,221.474M354.808,221.96C356.45,220.131 358.001,218.402 358.5,217.642C359.219,216.544 358.822,215.813 358.524,215.32C351.768,214.555 271.504,205.469 261.084,204.882C258.521,204.739 257.01,205.712 256.466,207.86C255.949,209.903 256.331,212.968 257.512,216.27C258.601,219.316 259.907,221.22 260.357,221.465C261.781,221.688 283.127,223.701 304.464,225.503C340.938,228.583 348.092,228.607 349.458,228.465C350.077,227.271 351.963,225.129 354.808,221.96ZM349.268,228.932L349.269,228.93L349.268,228.932ZM346.169,230.159C343.849,230.093 340.469,229.916 336.123,229.634C328.64,229.148 318.42,228.362 305.75,227.298C283.076,225.394 261.178,223.323 260.021,223.112C257.685,222.688 254.017,213.772 254.635,208.561C255.069,204.894 257.393,202.991 261.178,203.204C272.05,203.815 358.29,213.603 359.16,213.701L359.905,213.786L359.905,214.357L359.929,214.395C360.285,214.98 361.232,216.537 359.905,218.563C359.337,219.431 357.817,221.123 356.058,223.083C354.208,225.144 351.112,228.592 350.895,229.355C350.729,229.99 350.243,230.193 348.098,230.193C347.563,230.193 346.928,230.181 346.169,230.159Z" style="fill:rgb(5,3,10);fill-rule:nonzero;"/>
        <path d="M250.681,213.152C250.681,207.631 255.194,203.154 260.763,203.154C266.33,203.154 270.844,207.631 270.844,213.152C270.844,218.674 266.33,223.15 260.763,223.15C255.194,223.15 250.681,218.674 250.681,213.152Z" style="fill:rgb(5,3,10);fill-rule:nonzero;"/>
        <path d="M189.101,105.641L196.664,105.641L196.664,101.02L189.101,101.02C184.931,101.02 181.538,97.627 181.538,93.457C181.538,89.287 184.931,85.894 189.101,85.894L205.277,85.894L205.277,81.272L189.101,81.272C182.382,81.272 176.917,86.739 176.917,93.457C176.917,100.175 182.382,105.641 189.101,105.641Z" style="fill:rgb(179,172,177);fill-rule:nonzero;"/>
        <path d="M191.622,87.575L205.277,87.575C207.481,87.575 209.269,85.788 209.269,83.583C209.269,81.379 207.481,79.592 205.277,79.592L191.622,79.592C189.417,79.592 187.63,81.379 187.63,83.583C187.63,85.788 189.417,87.575 191.622,87.575Z" style="fill:rgb(51,50,55);fill-rule:nonzero;"/>
        <path d="M187.127,82.854C187.127,86.228 188.294,88.964 189.733,88.964C191.171,88.964 192.338,86.228 192.338,82.854C192.338,79.48 191.171,76.745 189.733,76.745C188.294,76.745 187.127,79.48 187.127,82.854Z" style="fill:rgb(51,50,55);fill-rule:nonzero;"/>
        <path d="M196.625,100.868C195.672,100.552 194.617,100.923 194.093,101.78L194.084,101.794C193.787,102.286 193.524,102.788 193.283,103.298C193.043,103.809 192.829,104.327 192.633,104.852C192.437,105.376 192.274,105.912 192.104,106.446C191.778,107.517 190.431,112.347 190.425,112.935L195.625,115.57C195.972,115.095 198.086,109.609 198.464,108.555C198.647,108.026 198.837,107.5 198.993,106.961C199.15,106.423 199.288,105.879 199.401,105.327C199.512,104.774 199.601,104.214 199.657,103.643L199.658,103.626C199.75,102.625 199.126,101.697 198.173,101.381L196.625,100.868Z" style="fill:rgb(179,172,177);fill-rule:nonzero;"/>
        <path d="M197.921,110.001C198.172,109.344 198.371,108.815 198.464,108.555C198.371,108.815 198.172,109.344 197.921,110.001Z" style="fill:rgb(104,195,217);fill-rule:nonzero;"/>
        <path d="M197.493,111.108L191.924,107.062C191.998,106.803 192.061,106.589 192.104,106.446C192.182,106.203 192.258,105.958 192.336,105.716L192.405,105.672C192.405,105.672 196.293,106.147 199.019,106.867L198.993,106.961C198.837,107.499 198.647,108.026 198.464,108.555C198.371,108.815 198.172,109.344 197.921,110.001C197.79,110.342 197.645,110.718 197.493,111.108Z" style="fill:rgb(155,147,152);fill-rule:nonzero;"/>
        <path d="M241.07,232.624L257.707,215.986C258.609,215.084 258.609,213.621 257.707,212.719C256.805,211.816 255.342,211.816 254.438,212.719L237.802,229.355C236.899,230.258 236.899,231.722 237.802,232.624C238.704,233.526 240.167,233.526 241.07,232.624Z" style="fill:rgb(5,3,10);fill-rule:nonzero;"/>
        <path d="M233.152,231.893L247.276,231.893C247.648,231.893 247.949,231.591 247.949,231.22L247.949,228.995C247.949,228.624 247.648,228.322 247.276,228.322L233.153,228.322C232.781,228.322 232.479,228.624 232.479,228.995L232.479,231.22C232.479,231.591 232.781,231.893 233.152,231.893Z" style="fill:rgb(5,3,10);fill-rule:nonzero;"/>
        <path d="M313.211,169.571C314.259,168.535 315.374,167.427 316.36,166.445C315.728,165.907 315.098,165.374 314.473,164.844L311.481,168.045L311.464,168.09C312.043,168.581 312.625,169.074 313.211,169.571Z" style="fill:rgb(61,51,147);fill-rule:nonzero;"/>
        <path d="M313.847,165.485C313.847,165.485 355.498,203.896 356.309,203.896C357.119,203.896 414.006,203.248 414.006,203.248C414.006,203.248 414.492,181.854 406.227,170.671C397.961,159.489 388.236,156.247 388.236,156.247L363.277,148.954L351.284,147.658L339.568,147.076L324.705,151.223C324.705,151.223 320.167,155.113 318.384,157.382C316.602,159.651 313.847,165.485 313.847,165.485Z" style="fill:rgb(28,50,97);"/>
        <g id="covibike-logo-grey" transform="matrix(0.141333,0,0,0.141333,365.52,166.793)">
            <g transform="matrix(1,0,0,1,-180,-104.5)">
                <g transform="matrix(1,0,0,1,-80,-123)">
                    <path d="M368.938,236.73C366.821,232.813 362.994,229.973 358.215,229.812C353.836,229.665 349.899,231.471 347.242,234.382C344.882,237.067 341.725,239.01 338.174,239.846C332.943,241.078 324.772,241.246 313.935,236.186C313.489,232.672 312.744,229.247 311.712,225.94C318.12,219.444 324.108,217.347 328.298,216.815C331.198,216.447 334.138,217.013 336.708,218.355C339.568,219.783 343.047,220.029 346.268,218.696C349.781,217.242 351.775,214.055 352.17,210.545C352.577,206.927 351.099,203.282 348.253,200.883C345.491,198.555 341.78,197.507 338.171,198.721C334.861,199.835 332.472,202.281 331.373,205.193C330.424,207.852 328.659,210.183 326.265,211.798C322.792,214.142 316.876,216.505 307.524,215.867C305.496,212.009 303.064,208.384 300.276,205.042C304.218,194.097 310.119,188.66 314.724,185.975C317.849,184.153 321.512,183.38 325.155,183.675C329.174,183.927 333.286,182.527 336.275,179.446C339.536,176.083 340.153,171.473 338.769,167.264C337.343,162.926 333.747,159.469 329.236,158.097C324.858,156.767 320.063,157.361 316.566,160.496C313.361,163.369 311.905,167.323 312.168,171.188C312.473,174.69 311.671,178.211 309.775,181.216C306.979,185.648 301.318,191.328 289.913,195.118C289.913,195.118 289.914,195.132 289.914,195.154C286.736,192.738 283.318,190.605 279.696,188.793C279.293,179.709 281.95,174.06 284.506,170.78C286.26,168.53 288.739,166.906 291.533,166.078C294.595,165.112 297.212,162.893 298.473,159.747C299.849,156.317 298.876,152.718 296.542,149.991C294.137,147.181 290.394,145.647 286.62,145.925C282.958,146.194 279.584,148.011 277.962,151.341C276.475,154.394 276.622,157.746 278.017,160.539C279.332,163.051 279.829,165.894 279.355,168.669C278.661,172.735 276.244,178.529 269.061,184.575C265.283,183.451 261.353,182.664 257.312,182.225L257.321,182.217C252.045,171.784 252.218,163.918 253.502,158.884C254.371,155.471 256.392,152.434 259.183,150.166C262.213,147.612 264.09,143.826 263.937,139.615C263.77,135.021 260.816,131.342 256.743,129.306C252.545,127.208 247.458,127.208 243.26,129.306C239.186,131.342 236.232,135.021 236.065,139.615C235.912,143.826 237.79,147.612 240.818,150.166C243.61,152.434 245.631,155.471 246.501,158.884C247.784,163.918 247.958,171.784 242.681,182.217C242.681,182.217 242.689,182.224 242.69,182.225C238.632,182.666 234.685,183.457 230.892,184.588C223.697,178.537 221.277,172.738 220.583,168.669C220.109,165.894 220.606,163.051 221.921,160.539C223.316,157.746 223.463,154.394 221.976,151.341C220.355,148.011 216.98,146.194 213.318,145.925C209.544,145.647 205.801,147.181 203.396,149.991C201.062,152.718 200.089,156.317 201.465,159.747C202.726,162.893 205.343,165.112 208.405,166.078C211.199,166.906 213.678,168.53 215.431,170.78C217.991,174.064 220.652,179.721 220.241,188.825C216.643,190.631 213.248,192.752 210.089,195.154L210.089,195.118C198.684,191.328 193.024,185.648 190.228,181.216C188.332,178.211 187.529,174.69 187.835,171.188C188.098,167.323 186.642,163.369 183.436,160.496C179.94,157.361 175.144,156.767 170.767,158.097C166.256,159.469 162.659,162.926 161.233,167.264C159.85,171.473 160.467,176.083 163.728,179.446C166.716,182.527 170.828,183.927 174.848,183.675C178.49,183.38 182.153,184.153 185.278,185.975C189.883,188.66 195.784,194.097 199.726,205.042C196.938,208.384 194.506,212.009 192.479,215.867C183.127,216.505 177.211,214.142 173.737,211.798C171.344,210.183 169.578,207.852 168.63,205.193C167.53,202.281 165.141,199.835 161.832,198.721C158.222,197.507 154.511,198.555 151.75,200.883C148.903,203.282 147.426,206.927 147.833,210.545C148.227,214.055 150.222,217.242 153.735,218.696C156.955,220.029 160.434,219.783 163.295,218.355C165.864,217.013 168.805,216.447 171.704,216.815C175.894,217.347 181.883,219.444 188.291,225.94C187.259,229.247 186.514,232.672 186.068,236.186C175.23,241.246 167.06,241.078 161.828,239.846C158.277,239.01 155.12,237.067 152.76,234.382C150.104,231.471 146.167,229.665 141.787,229.812C137.009,229.973 133.182,232.813 131.065,236.73C128.882,240.766 128.882,245.657 131.065,249.693C133.182,253.61 137.009,256.451 141.787,256.611C146.167,256.758 150.104,254.952 152.76,252.041C155.12,249.357 158.277,247.413 161.828,246.576C167.036,245.35 175.16,245.182 185.927,250.175C186.469,255.226 187.631,260.1 189.358,264.718C189.679,264.702 190.001,264.692 190.323,264.692L202.021,264.692C202.318,263.228 203.196,261.931 204.692,261.313C206.207,260.685 207.845,260.8 209.191,261.472C210.401,262.104 211.785,262.37 213.15,262.198C215.088,261.951 217.846,260.978 220.803,258.042C220.337,256.425 219.992,254.76 219.822,253.043C214.766,250.704 210.949,250.781 208.501,251.357C206.83,251.75 205.344,252.665 204.234,253.929C202.983,255.299 201.13,256.149 199.068,256.08C196.819,256.004 195.018,254.667 194.022,252.824C192.995,250.924 192.995,248.622 194.022,246.722C195.018,244.879 196.819,243.542 199.068,243.467C201.13,243.397 202.983,244.247 204.234,245.617C205.344,246.881 206.83,247.796 208.501,248.189C210.965,248.77 214.816,248.848 219.923,246.461L219.926,246.463C220.136,244.815 220.478,243.207 220.961,241.656C217.943,238.595 215.122,237.6 213.15,237.349C211.785,237.176 210.401,237.443 209.191,238.074C207.845,238.746 206.207,238.862 204.692,238.234C203.039,237.55 202.1,236.05 201.914,234.398C201.723,232.695 202.418,230.979 203.757,229.85C205.057,228.755 206.804,228.262 208.503,228.833C210.06,229.357 211.185,230.508 211.703,231.879C212.149,233.131 212.98,234.228 214.107,234.988C215.744,236.093 218.54,237.203 222.954,236.898C223.906,235.09 225.036,233.386 226.342,231.819C224.487,226.66 221.708,224.099 219.538,222.834C218.068,221.976 216.343,221.613 214.629,221.751C212.737,221.87 210.802,221.211 209.395,219.761C207.86,218.178 207.57,216.008 208.221,214.027C208.892,211.986 210.585,210.358 212.708,209.713C214.769,209.087 217.026,209.367 218.672,210.842C220.18,212.194 220.865,214.055 220.742,215.874C220.598,217.522 220.976,219.18 221.868,220.594C223.184,222.68 225.848,225.353 231.216,227.137C231.216,227.137 231.215,227.157 231.215,227.173C232.702,226.042 234.298,225.04 235.991,224.19C236.188,219.898 234.936,217.229 233.731,215.682C232.905,214.623 231.738,213.859 230.423,213.469C228.982,213.014 227.751,211.97 227.157,210.49C226.509,208.875 226.967,207.18 228.066,205.897C229.198,204.575 230.959,203.853 232.735,203.984C234.459,204.11 236.048,204.966 236.811,206.533C237.51,207.97 237.441,209.547 236.785,210.862C236.166,212.044 235.932,213.383 236.155,214.688C236.482,216.604 237.623,219.333 241.009,222.181C242.796,221.649 244.657,221.284 246.568,221.076C246.567,221.076 246.556,221.065 246.556,221.065C249.04,216.155 248.958,212.452 248.354,210.083C247.944,208.476 246.993,207.047 245.679,205.98C244.254,204.777 243.37,202.996 243.442,201.014C243.521,198.852 244.911,197.12 246.828,196.161C248.804,195.174 251.198,195.174 253.174,196.161C255.091,197.12 256.482,198.852 256.56,201.014C256.631,202.996 255.749,204.777 254.324,205.98C253.009,207.047 252.058,208.476 251.649,210.083C251.045,212.452 250.963,216.155 253.447,221.065L253.434,221.076C255.338,221.283 257.19,221.646 258.969,222.176C262.35,219.33 263.491,216.602 263.817,214.688C264.041,213.383 263.806,212.044 263.187,210.862C262.531,209.547 262.462,207.97 263.162,206.533C263.924,204.966 265.513,204.11 267.236,203.984C269.012,203.853 270.774,204.575 271.907,205.897C273.005,207.18 273.463,208.875 272.815,210.49C272.221,211.97 270.99,213.014 269.549,213.469C268.234,213.859 267.067,214.623 266.242,215.682C265.037,217.227 263.788,219.892 263.98,224.176C265.685,225.03 267.292,226.035 268.788,227.173C268.787,227.157 268.787,227.137 268.787,227.137C274.154,225.353 276.819,222.68 278.134,220.594C279.027,219.18 279.405,217.522 279.26,215.874C279.137,214.055 279.822,212.194 281.331,210.842C282.977,209.367 285.234,209.087 287.295,209.713C289.418,210.358 291.11,211.986 291.782,214.027C292.432,216.008 292.142,218.178 290.607,219.761C289.201,221.211 287.265,221.87 285.374,221.751C283.659,221.613 281.935,221.976 280.464,222.834C278.295,224.099 275.515,226.66 273.66,231.819C274.966,233.386 276.096,235.09 277.048,236.898C281.463,237.203 284.258,236.093 285.896,234.988C287.022,234.228 287.854,233.131 288.299,231.879C288.818,230.508 289.942,229.357 291.5,228.833C293.199,228.262 294.945,228.755 296.245,229.85C297.585,230.979 298.28,232.695 298.089,234.398C297.903,236.05 296.964,237.55 295.311,238.234C293.796,238.862 292.157,238.746 290.811,238.074C289.602,237.443 288.217,237.176 286.853,237.349C284.88,237.6 282.059,238.595 279.042,241.656C279.525,243.207 279.867,244.815 280.077,246.463L280.079,246.461C285.187,248.848 289.037,248.77 291.502,248.189C293.172,247.796 294.659,246.881 295.769,245.617C297.02,244.247 298.873,243.397 300.934,243.467C303.183,243.542 304.984,244.879 305.981,246.722C307.007,248.622 307.007,250.924 305.981,252.824C304.984,254.667 303.183,256.004 300.934,256.08C298.873,256.149 297.02,255.299 295.769,253.929C294.659,252.665 293.172,251.75 291.502,251.357C289.053,250.781 285.236,250.704 280.18,253.043C280.01,254.76 279.666,256.425 279.2,258.042C282.157,260.978 284.915,261.951 286.853,262.198C288.217,262.37 289.602,262.104 290.811,261.472C292.157,260.8 293.796,260.685 295.311,261.313C296.806,261.931 297.684,263.228 297.982,264.692L310.654,264.692C312.375,260.081 313.534,255.216 314.076,250.175C324.842,245.182 332.966,245.35 338.174,246.576C341.725,247.413 344.882,249.357 347.242,252.041C349.899,254.952 353.836,256.758 358.215,256.611C362.994,256.451 366.821,253.61 368.938,249.693C371.12,245.657 371.12,240.766 368.938,236.73Z" style="fill:rgb(255,1,0);fill-rule:nonzero;"/>
                    <path d="M263.268,250.096C263.268,243.052 257.328,237.341 250.001,237.341C242.674,237.341 236.735,243.052 236.735,250.096C236.735,250.113 236.737,250.128 236.737,250.144C236.737,250.161 236.735,250.177 236.735,250.193C236.735,257.238 242.674,262.949 250.001,262.949C257.328,262.949 263.268,257.238 263.268,250.193C263.268,250.177 263.265,250.161 263.265,250.145C263.265,250.128 263.268,250.113 263.268,250.096Z" style="fill:rgb(125,133,137);fill-rule:nonzero;"/>
                    <g transform="matrix(1,0,0,1,-62,24)">
                        <g>
                            <g transform="matrix(1,0,0,1,143.392,297.695)">
                                <text x="0px" y="0px" style="font-family:'ArialRoundedMTBold', 'Arial Rounded MT Bold', sans-serif;font-size:72px;fill:rgb(125,133,137);">CO</text>
                            </g>
                            <g transform="matrix(1,0,0,1,251.849,297.695)">
                                <text x="0px" y="0px" style="font-family:'ArialRoundedMTBold', 'Arial Rounded MT Bold', sans-serif;font-size:72px;fill:rgb(125,133,137);">VIBIKE</text>
                            </g>
                        </g>
                    </g>
                </g>
            </g>
        </g>
    </g>
    <defs>
        <linearGradient id="_Linear1" x1="0" y1="0" x2="1" y2="0" gradientUnits="userSpaceOnUse" gradientTransform="matrix(9.12239e-17,14.898,-14.898,9.12239e-17,175.938,253.362)"><stop offset="0" style="stop-color:rgb(70,73,158);stop-opacity:1"/><stop offset="1" style="stop-color:rgb(110,94,155);stop-opacity:1"/></linearGradient>
        <linearGradient id="_Linear2" x1="0" y1="0" x2="1" y2="0" gradientUnits="userSpaceOnUse" gradientTransform="matrix(9.12239e-17,14.898,-14.898,9.12239e-17,175.938,253.362)"><stop offset="0" style="stop-color:rgb(70,73,158);stop-opacity:1"/><stop offset="1" style="stop-color:rgb(110,94,155);stop-opacity:1"/></linearGradient>
        <linearGradient id="_Linear3" x1="0" y1="0" x2="1" y2="0" gradientUnits="userSpaceOnUse" gradientTransform="matrix(4.09093e-16,66.8099,-66.8099,4.09093e-16,175.334,233.542)"><stop offset="0" style="stop-color:rgb(70,73,158);stop-opacity:1"/><stop offset="1" style="stop-color:rgb(110,94,155);stop-opacity:1"/></linearGradient>
    </defs>
</svg>
