<?xml version="1.0" encoding="UTF-8" standalone="no"?>
<!DOCTYPE svg PUBLIC "-//W3C//DTD SVG 1.1//EN" "http://www.w3.org/Graphics/SVG/1.1/DTD/svg11.dtd">
<svg width="100%" height="100%" viewBox="0 0 359 198" version="1.1" xmlns="http://www.w3.org/2000/svg" xmlns:xlink="http://www.w3.org/1999/xlink" xml:space="preserve" xmlns:serif="http://www.serif.com/" style="fill-rule:evenodd;clip-rule:evenodd;stroke-linejoin:round;stroke-miterlimit:2;">
    <g transform="matrix(1,0,0,1,-80,-125)">
        <path d="M368.938,236.73C366.821,232.813 362.994,229.973 358.215,229.812C353.836,229.665 349.899,231.471 347.242,234.382C344.882,237.067 341.725,239.01 338.174,239.846C332.943,241.078 324.772,241.246 313.935,236.186C313.489,232.672 312.744,229.247 311.712,225.94C318.12,219.444 324.108,217.347 328.298,216.815C331.198,216.447 334.138,217.013 336.708,218.355C339.568,219.783 343.047,220.029 346.268,218.696C349.781,217.242 351.775,214.055 352.17,210.545C352.577,206.927 351.099,203.282 348.253,200.883C345.491,198.555 341.78,197.507 338.171,198.721C334.861,199.835 332.472,202.281 331.373,205.193C330.424,207.852 328.659,210.183 326.265,211.798C322.792,214.142 316.876,216.505 307.524,215.867C305.496,212.009 303.064,208.384 300.276,205.042C304.218,194.097 310.119,188.66 314.724,185.975C317.849,184.153 321.512,183.38 325.155,183.675C329.174,183.927 333.286,182.527 336.275,179.446C339.536,176.083 340.153,171.473 338.769,167.264C337.343,162.926 333.747,159.469 329.236,158.097C324.858,156.767 320.063,157.361 316.566,160.496C313.361,163.369 311.905,167.323 312.168,171.188C312.473,174.69 311.671,178.211 309.775,181.216C306.979,185.648 301.318,191.328 289.913,195.118C289.913,195.118 289.914,195.132 289.914,195.154C286.736,192.738 283.318,190.605 279.696,188.793C279.293,179.709 281.95,174.06 284.506,170.78C286.26,168.53 288.739,166.906 291.533,166.078C294.595,165.112 297.212,162.893 298.473,159.747C299.849,156.317 298.876,152.718 296.542,149.991C294.137,147.181 290.394,145.647 286.62,145.925C282.958,146.194 279.584,148.011 277.962,151.341C276.475,154.394 276.622,157.746 278.017,160.539C279.332,163.051 279.829,165.894 279.355,168.669C278.661,172.735 276.244,178.529 269.061,184.575C265.283,183.451 261.353,182.664 257.312,182.225L257.321,182.217C252.045,171.784 252.218,163.918 253.502,158.884C254.371,155.471 256.392,152.434 259.183,150.166C262.213,147.612 264.09,143.826 263.937,139.615C263.77,135.021 260.816,131.342 256.743,129.306C252.545,127.208 247.458,127.208 243.26,129.306C239.186,131.342 236.232,135.021 236.065,139.615C235.912,143.826 237.79,147.612 240.818,150.166C243.61,152.434 245.631,155.471 246.501,158.884C247.784,163.918 247.958,171.784 242.681,182.217C242.681,182.217 242.689,182.224 242.69,182.225C238.632,182.666 234.685,183.457 230.892,184.588C223.697,178.537 221.277,172.738 220.583,168.669C220.109,165.894 220.606,163.051 221.921,160.539C223.316,157.746 223.463,154.394 221.976,151.341C220.355,148.011 216.98,146.194 213.318,145.925C209.544,145.647 205.801,147.181 203.396,149.991C201.062,152.718 200.089,156.317 201.465,159.747C202.726,162.893 205.343,165.112 208.405,166.078C211.199,166.906 213.678,168.53 215.431,170.78C217.991,174.064 220.652,179.721 220.241,188.825C216.643,190.631 213.248,192.752 210.089,195.154L210.089,195.118C198.684,191.328 193.024,185.648 190.228,181.216C188.332,178.211 187.529,174.69 187.835,171.188C188.098,167.323 186.642,163.369 183.436,160.496C179.94,157.361 175.144,156.767 170.767,158.097C166.256,159.469 162.659,162.926 161.233,167.264C159.85,171.473 160.467,176.083 163.728,179.446C166.716,182.527 170.828,183.927 174.848,183.675C178.49,183.38 182.153,184.153 185.278,185.975C189.883,188.66 195.784,194.097 199.726,205.042C196.938,208.384 194.506,212.009 192.479,215.867C183.127,216.505 177.211,214.142 173.737,211.798C171.344,210.183 169.578,207.852 168.63,205.193C167.53,202.281 165.141,199.835 161.832,198.721C158.222,197.507 154.511,198.555 151.75,200.883C148.903,203.282 147.426,206.927 147.833,210.545C148.227,214.055 150.222,217.242 153.735,218.696C156.955,220.029 160.434,219.783 163.295,218.355C165.864,217.013 168.805,216.447 171.704,216.815C175.894,217.347 181.883,219.444 188.291,225.94C187.259,229.247 186.514,232.672 186.068,236.186C175.23,241.246 167.06,241.078 161.828,239.846C158.277,239.01 155.12,237.067 152.76,234.382C150.104,231.471 146.167,229.665 141.787,229.812C137.009,229.973 133.182,232.813 131.065,236.73C128.882,240.766 128.882,245.657 131.065,249.693C133.182,253.61 137.009,256.451 141.787,256.611C146.167,256.758 150.104,254.952 152.76,252.041C155.12,249.357 158.277,247.413 161.828,246.576C167.036,245.35 175.16,245.182 185.927,250.175C186.469,255.226 187.631,260.1 189.358,264.718C189.679,264.702 190.001,264.692 190.323,264.692L202.021,264.692C202.318,263.228 203.196,261.931 204.692,261.313C206.207,260.685 207.845,260.8 209.191,261.472C210.401,262.104 211.785,262.37 213.15,262.198C215.088,261.951 217.846,260.978 220.803,258.042C220.337,256.425 219.992,254.76 219.822,253.043C214.766,250.704 210.949,250.781 208.501,251.357C206.83,251.75 205.344,252.665 204.234,253.929C202.983,255.299 201.13,256.149 199.068,256.08C196.819,256.004 195.018,254.667 194.022,252.824C192.995,250.924 192.995,248.622 194.022,246.722C195.018,244.879 196.819,243.542 199.068,243.467C201.13,243.397 202.983,244.247 204.234,245.617C205.344,246.881 206.83,247.796 208.501,248.189C210.965,248.77 214.816,248.848 219.923,246.461L219.926,246.463C220.136,244.815 220.478,243.207 220.961,241.656C217.943,238.595 215.122,237.6 213.15,237.349C211.785,237.176 210.401,237.443 209.191,238.074C207.845,238.746 206.207,238.862 204.692,238.234C203.039,237.55 202.1,236.05 201.914,234.398C201.723,232.695 202.418,230.979 203.757,229.85C205.057,228.755 206.804,228.262 208.503,228.833C210.06,229.357 211.185,230.508 211.703,231.879C212.149,233.131 212.98,234.228 214.107,234.988C215.744,236.093 218.54,237.203 222.954,236.898C223.906,235.09 225.036,233.386 226.342,231.819C224.487,226.66 221.708,224.099 219.538,222.834C218.068,221.976 216.343,221.613 214.629,221.751C212.737,221.87 210.802,221.211 209.395,219.761C207.86,218.178 207.57,216.008 208.221,214.027C208.892,211.986 210.585,210.358 212.708,209.713C214.769,209.087 217.026,209.367 218.672,210.842C220.18,212.194 220.865,214.055 220.742,215.874C220.598,217.522 220.976,219.18 221.868,220.594C223.184,222.68 225.848,225.353 231.216,227.137C231.216,227.137 231.215,227.157 231.215,227.173C232.702,226.042 234.298,225.04 235.991,224.19C236.188,219.898 234.936,217.229 233.731,215.682C232.905,214.623 231.738,213.859 230.423,213.469C228.982,213.014 227.751,211.97 227.157,210.49C226.509,208.875 226.967,207.18 228.066,205.897C229.198,204.575 230.959,203.853 232.735,203.984C234.459,204.11 236.048,204.966 236.811,206.533C237.51,207.97 237.441,209.547 236.785,210.862C236.166,212.044 235.932,213.383 236.155,214.688C236.482,216.604 237.623,219.333 241.009,222.181C242.796,221.649 244.657,221.284 246.568,221.076C246.567,221.076 246.556,221.065 246.556,221.065C249.04,216.155 248.958,212.452 248.354,210.083C247.944,208.476 246.993,207.047 245.679,205.98C244.254,204.777 243.37,202.996 243.442,201.014C243.521,198.852 244.911,197.12 246.828,196.161C248.804,195.174 251.198,195.174 253.174,196.161C255.091,197.12 256.482,198.852 256.56,201.014C256.631,202.996 255.749,204.777 254.324,205.98C253.009,207.047 252.058,208.476 251.649,210.083C251.045,212.452 250.963,216.155 253.447,221.065L253.434,221.076C255.338,221.283 257.19,221.646 258.969,222.176C262.35,219.33 263.491,216.602 263.817,214.688C264.041,213.383 263.806,212.044 263.187,210.862C262.531,209.547 262.462,207.97 263.162,206.533C263.924,204.966 265.513,204.11 267.236,203.984C269.012,203.853 270.774,204.575 271.907,205.897C273.005,207.18 273.463,208.875 272.815,210.49C272.221,211.97 270.99,213.014 269.549,213.469C268.234,213.859 267.067,214.623 266.242,215.682C265.037,217.227 263.788,219.892 263.98,224.176C265.685,225.03 267.292,226.035 268.788,227.173C268.787,227.157 268.787,227.137 268.787,227.137C274.154,225.353 276.819,222.68 278.134,220.594C279.027,219.18 279.405,217.522 279.26,215.874C279.137,214.055 279.822,212.194 281.331,210.842C282.977,209.367 285.234,209.087 287.295,209.713C289.418,210.358 291.11,211.986 291.782,214.027C292.432,216.008 292.142,218.178 290.607,219.761C289.201,221.211 287.265,221.87 285.374,221.751C283.659,221.613 281.935,221.976 280.464,222.834C278.295,224.099 275.515,226.66 273.66,231.819C274.966,233.386 276.096,235.09 277.048,236.898C281.463,237.203 284.258,236.093 285.896,234.988C287.022,234.228 287.854,233.131 288.299,231.879C288.818,230.508 289.942,229.357 291.5,228.833C293.199,228.262 294.945,228.755 296.245,229.85C297.585,230.979 298.28,232.695 298.089,234.398C297.903,236.05 296.964,237.55 295.311,238.234C293.796,238.862 292.157,238.746 290.811,238.074C289.602,237.443 288.217,237.176 286.853,237.349C284.88,237.6 282.059,238.595 279.042,241.656C279.525,243.207 279.867,244.815 280.077,246.463L280.079,246.461C285.187,248.848 289.037,248.77 291.502,248.189C293.172,247.796 294.659,246.881 295.769,245.617C297.02,244.247 298.873,243.397 300.934,243.467C303.183,243.542 304.984,244.879 305.981,246.722C307.007,248.622 307.007,250.924 305.981,252.824C304.984,254.667 303.183,256.004 300.934,256.08C298.873,256.149 297.02,255.299 295.769,253.929C294.659,252.665 293.172,251.75 291.502,251.357C289.053,250.781 285.236,250.704 280.18,253.043C280.01,254.76 279.666,256.425 279.2,258.042C282.157,260.978 284.915,261.951 286.853,262.198C288.217,262.37 289.602,262.104 290.811,261.472C292.157,260.8 293.796,260.685 295.311,261.313C296.806,261.931 297.684,263.228 297.982,264.692L310.654,264.692C312.375,260.081 313.534,255.216 314.076,250.175C324.842,245.182 332.966,245.35 338.174,246.576C341.725,247.413 344.882,249.357 347.242,252.041C349.899,254.952 353.836,256.758 358.215,256.611C362.994,256.451 366.821,253.61 368.938,249.693C371.12,245.657 371.12,240.766 368.938,236.73Z" style="fill:rgb(255,1,0);fill-rule:nonzero;"/>
        <path d="M263.268,250.096C263.268,243.052 257.328,237.341 250.001,237.341C242.674,237.341 236.735,243.052 236.735,250.096C236.735,250.113 236.737,250.128 236.737,250.144C236.737,250.161 236.735,250.177 236.735,250.193C236.735,257.238 242.674,262.949 250.001,262.949C257.328,262.949 263.268,257.238 263.268,250.193C263.268,250.177 263.265,250.161 263.265,250.145C263.265,250.128 263.268,250.113 263.268,250.096Z" style="fill:rgb(125,133,137);fill-rule:nonzero;"/>
        <g transform="matrix(0.668486,0,0,0.668486,36.7252,120.981)">
            <g>
                <g transform="matrix(1,0,0,1,143.392,297.695)">
                    <text x="0px" y="0px" style="font-family:'ArialRoundedMTBold', 'Arial Rounded MT Bold', sans-serif;font-size:72px;fill:white;">CO</text>
                </g>
                <g transform="matrix(1,0,0,1,251.849,297.695)">
                    <text x="0px" y="0px" style="font-family:'ArialRoundedMTBold', 'Arial Rounded MT Bold', sans-serif;font-size:72px;fill:white;">VIBIKE</text>
                </g>
            </g>
        </g>
    </g>
</svg>
