<?xml version="1.0" encoding="UTF-8"?>
<svg width="136px" height="40px" viewBox="0 0 136 40" version="1.1" xmlns="http://www.w3.org/2000/svg" xmlns:xlink="http://www.w3.org/1999/xlink">
    <!-- Generator: Sketch 53.2 (72643) - https://sketchapp.com -->
    <title>get-it-on-google-play</title>
    <desc>Created with Sketch.</desc>
    <defs>
        <linearGradient x1="61.2978126%" y1="4.9604069%" x2="25.9507285%" y2="71.909245%" id="linearGradient-1">
            <stop stop-color="#00A0FF" offset="0%"></stop>
            <stop stop-color="#00A1FF" offset="0.66%"></stop>
            <stop stop-color="#00BEFF" offset="26.01%"></stop>
            <stop stop-color="#00D2FF" offset="51.22%"></stop>
            <stop stop-color="#00DFFF" offset="76.04%"></stop>
            <stop stop-color="#00E3FF" offset="100%"></stop>
        </linearGradient>
        <linearGradient x1="107.585647%" y1="50.0163647%" x2="-130.492257%" y2="50.0163647%" id="linearGradient-2">
            <stop stop-color="#FFE000" offset="0%"></stop>
            <stop stop-color="#FFBD00" offset="40.87%"></stop>
            <stop stop-color="#FFA500" offset="77.54%"></stop>
            <stop stop-color="#FF9C00" offset="100%"></stop>
        </linearGradient>
        <linearGradient x1="86.237735%" y1="89.3730889%" x2="-50.1313759%" y2="192.045808%" id="linearGradient-3">
            <stop stop-color="#FF3A44" offset="0%"></stop>
            <stop stop-color="#C31162" offset="100%"></stop>
        </linearGradient>
        <linearGradient x1="-18.8012883%" y1="-68.399562%" x2="42.0936259%" y2="-22.5671594%" id="linearGradient-4">
            <stop stop-color="#32A071" offset="0%"></stop>
            <stop stop-color="#2DA771" offset="6.85%"></stop>
            <stop stop-color="#15CF74" offset="47.62%"></stop>
            <stop stop-color="#06E775" offset="80.09%"></stop>
            <stop stop-color="#00F076" offset="100%"></stop>
        </linearGradient>
    </defs>
    <g id="Page-1" stroke="none" stroke-width="1" fill="none" fill-rule="evenodd">
        <path d="M130.539349,0.3137625 L5.24031191,0.3137625 C2.48498608,0.3137625 0.228350413,2.54414285 0.228350413,5.26741125 L0.228350413,34.9893037 C0.228350413,37.7125722 2.48498608,39.9429525 5.24031191,39.9429525 L130.539349,39.9429525 C133.294675,39.9429525 135.551311,37.7125722 135.551311,34.9893037 L135.551311,5.26741125 C135.551311,2.54414285 133.294675,0.3137625 130.539349,0.3137625 Z" id="path14" fill="#000000" fill-rule="nonzero" transform="translate(67.889831, 20.128357) scale(-1, 1) rotate(-180.000000) translate(-67.889831, -20.128357) "></path>
        <path d="M130.539349,39.1491303 C132.859888,39.1491303 134.748144,37.2828431 134.748144,34.9893037 L134.748144,5.26741125 C134.748144,2.97387188 132.859888,1.10758471 130.539349,1.10758471 L5.24031191,1.10758471 C2.91977374,1.10758471 1.03151724,2.97387188 1.03151724,5.26741125 L1.03151724,34.9893037 C1.03151724,37.2828431 2.91977374,39.1491303 5.24031191,39.1491303 L130.539349,39.1491303 L130.539349,39.1491303 Z M130.539349,39.9429525 L5.24031191,39.9429525 C2.48498608,39.9429525 0.228350413,37.7125722 0.228350413,34.9893037 L0.228350413,5.26741125 C0.228350413,2.54414285 2.48498608,0.3137625 5.24031191,0.3137625 L130.539349,0.3137625 C133.294675,0.3137625 135.551311,2.54414285 135.551311,5.26741125 L135.551311,34.9893037 C135.551311,37.7125722 133.294675,39.9429525 130.539349,39.9429525 Z" id="path16" fill="#A6A6A6" fill-rule="nonzero" transform="translate(67.889831, 20.128357) scale(-1, 1) rotate(-180.000000) translate(-67.889831, -20.128357) "></path>
        <path d="M47.7592873,10.4625504 C47.7592873,11.2898097 47.5086892,11.9523602 47.015011,12.4464867 C46.4474064,13.0322557 45.7081421,13.3269978 44.80223,13.3269978 C43.9364137,13.3269978 43.1971493,13.027302 42.590702,12.4365794 C41.9830017,11.8371879 41.679778,11.1015711 41.679778,10.22106 C41.679778,9.34054893 41.9830017,8.6049321 42.590702,8.01049425 C43.1971493,7.41481798 43.9364137,7.11512223 44.80223,7.11512223 C45.2332587,7.11512223 45.6442395,7.2030495 46.0364255,7.36651991 C46.4273585,7.53122873 46.7456181,7.75414292 46.9761683,8.02907043 L46.4524183,8.55168037 C46.0502084,8.08232215 45.5026516,7.85073907 44.80223,7.85073907 C44.1707229,7.85073907 43.6231661,8.06869962 43.1583066,8.50833594 C42.6984592,8.94921068 42.4679089,9.5201187 42.4679089,10.22106 C42.4679089,10.9220013 42.6984592,11.497863 43.1583066,11.9387377 C43.6231661,12.3734204 44.1707229,12.5963346 44.80223,12.5963346 C45.4725799,12.5963346 46.0364255,12.3734204 46.4812371,11.9337841 C46.7744369,11.6427572 46.9410846,11.2415116 46.9849392,10.728809 L44.80223,10.728809 L44.80223,10.0130068 L47.7141796,10.0130068 C47.7492634,10.1678083 47.7592873,10.3176562 47.7592873,10.4625504 L47.7592873,10.4625504 Z M52.3790628,7.98077235 L49.6437848,7.98077235 L49.6437848,9.86315888 L52.1096699,9.86315888 L52.1096699,10.5789611 L49.6437848,10.5789611 L49.6437848,12.4613476 L52.3790628,12.4613476 L52.3790628,13.1907724 L48.8694368,13.1907724 L48.8694368,7.25134757 L52.3790628,7.25134757 L52.3790628,7.98077235 Z M55.6393438,13.1907724 L54.8649957,13.1907724 L54.8649957,7.98077235 L53.1872416,7.98077235 L53.1872416,7.25134757 L57.3183509,7.25134757 L57.3183509,7.98077235 L55.6393438,7.98077235 L55.6393438,13.1907724 L55.6393438,13.1907724 Z M60.3079859,13.1907724 L60.3079859,7.25134757 L61.081081,7.25134757 L61.081081,13.1907724 L60.3079859,13.1907724 Z M64.5080096,13.1907724 L63.7399265,13.1907724 L63.7399265,7.98077235 L62.0559075,7.98077235 L62.0559075,7.25134757 L66.1920287,7.25134757 L66.1920287,7.98077235 L64.5080096,7.98077235 L64.5080096,13.1907724 Z M74.0131946,12.4266721 C73.4205302,13.027302 72.6862778,13.3269978 71.8104375,13.3269978 C70.9295853,13.3269978 70.195333,13.027302 69.6026685,12.4266721 C69.011257,11.8272806 68.7168043,11.0916638 68.7168043,10.22106 C68.7168043,9.35045623 69.011257,8.61483939 69.6026685,8.01544789 C70.195333,7.41481798 70.9295853,7.11512223 71.8104375,7.11512223 C72.6812659,7.11512223 73.4155182,7.41481798 74.0081827,8.02040154 C74.6046061,8.62474669 74.8990588,9.35540988 74.8990588,10.22106 C74.8990588,11.0916638 74.6046061,11.8272806 74.0131946,12.4266721 Z M70.1752851,11.9288304 C70.6213497,12.3734204 71.1638945,12.5963346 71.8104375,12.5963346 C72.4519686,12.5963346 72.9995254,12.3734204 73.440578,11.9288304 C73.8853896,11.4842404 74.1109279,10.9133324 74.1109279,10.22106 C74.1109279,9.52878759 73.8853896,8.95787957 73.440578,8.51328959 C72.9995254,8.06869962 72.4519686,7.84578542 71.8104375,7.84578542 C71.1638945,7.84578542 70.6213497,8.06869962 70.1752851,8.51328959 C69.7304735,8.95787957 69.5049353,9.52878759 69.5049353,10.22106 C69.5049353,10.9133324 69.7304735,11.4842404 70.1752851,11.9288304 L70.1752851,11.9288304 Z M75.9854015,13.1907724 L75.9854015,7.25134757 L76.9251443,7.25134757 L79.8471178,11.870625 L79.8809486,11.870625 L79.8471178,10.728809 L79.8471178,7.25134757 L80.6202129,7.25134757 L80.6202129,13.1907724 L79.8132871,13.1907724 L76.7534846,8.34362712 L76.7196538,8.34362712 L76.7534846,9.49039681 L76.7534846,13.1907724 L75.9854015,13.1907724 Z" id="Shape" stroke="#FFFFFF" stroke-width="0.625" fill="#FFFFFF" fill-rule="nonzero"></path>
        <path d="M68.5263498,21.8646114 C70.8857306,21.8646114 72.8090709,23.6355408 72.8090709,26.0789281 C72.8090709,28.5025007 70.8857306,30.2920063 68.5263498,30.2920063 C66.1719809,30.2920063 64.2486406,28.5025007 64.2486406,26.0789281 C64.2486406,23.6355408 66.1719809,21.8646114 68.5263498,21.8646114 Z M68.5263498,28.632534 C69.8181828,28.632534 70.9345973,27.5786452 70.9345973,26.0789281 C70.9345973,24.5593963 69.8181828,23.5240837 68.5263498,23.5240837 C67.2345167,23.5240837 66.1231142,24.5593963 66.1231142,26.0789281 C66.1231142,27.5786452 67.2345167,28.632534 68.5263498,28.632534 Z M59.1928245,21.8646114 C61.5509524,21.8646114 63.4705336,23.6355408 63.4705336,26.0789281 C63.4705336,28.5025007 61.5509524,30.2920063 59.1928245,30.2920063 C56.8334436,30.2920063 54.9151153,28.5025007 54.9151153,26.0789281 C54.9151153,23.6355408 56.8334436,21.8646114 59.1928245,21.8646114 Z M59.1928245,28.632534 C60.4846575,28.632534 61.59606,27.5786452 61.59606,26.0789281 C61.59606,24.5593963 60.4846575,23.5240837 59.1928245,23.5240837 C57.8997384,23.5240837 56.784577,24.5593963 56.784577,26.0789281 C56.784577,27.5786452 57.8997384,28.632534 59.1928245,28.632534 Z M48.0863178,23.1562753 L54.175851,23.1562753 C54.2385005,23.4757856 54.2735843,23.858455 54.2735843,24.2745615 C54.2735843,25.6145235 53.9014461,27.2739958 52.7073463,28.4542026 C51.5420652,29.6529856 50.0597776,30.2920063 48.0863178,30.2920063 C44.4351038,30.2920063 41.3665304,27.355731 41.3665304,23.7469979 C41.3665304,20.1382648 44.4351038,17.2019895 48.0863178,17.2019895 C50.1036323,17.2019895 51.5420652,17.9859044 52.6233959,19.0063561 L51.3465987,20.2682981 C50.5735037,19.5475422 49.5260037,18.9914951 48.0863178,18.9914951 C45.4237132,18.9914951 43.3387373,21.115372 43.3387373,23.7469979 C43.3387373,26.3786238 45.4237132,28.5025007 48.0863178,28.5025007 C49.8141915,28.5025007 50.797789,27.8151819 51.4292961,27.1959759 C51.9480341,26.6832732 52.2863415,25.9476564 52.4128936,24.9470193 L48.0863178,24.9470193 L48.0863178,23.1562753 Z M93.5022069,24.5445354 L93.6989264,25.0238009 L87.9965672,27.355731 C88.4326079,28.202805 89.1129816,28.632534 90.0614953,28.632534 C91.016274,28.632534 91.6765999,28.1681294 92.1615072,27.4671881 L93.6149761,28.4244807 C93.1501166,29.1117995 92.0199193,30.2920063 90.0614953,30.2920063 C87.639465,30.2920063 85.8326528,28.4393417 85.8326528,26.0789281 C85.8326528,23.5723818 87.6582598,21.8646114 89.850993,21.8646114 C92.063774,21.8646114 93.1501166,23.6021037 93.5022069,24.5445354 L93.5022069,24.5445354 Z M87.6883316,25.9476564 L91.5011813,24.3847802 C91.2906789,23.858455 90.6591718,23.4906466 89.9148955,23.4906466 C88.9651288,23.4906466 87.639465,24.3228596 87.6883316,25.9476564 L87.6883316,25.9476564 Z M83.0535202,30.035655 L83.0535202,17.6515331 L84.9279938,17.6515331 L84.9279938,30.035655 L83.0535202,30.035655 Z M79.9836938,22.8033278 L79.9836938,22.1209627 L81.7604341,22.1209627 L81.7604341,29.6876612 C81.7604341,32.7973142 79.9060084,34.0753556 77.7082632,34.0753556 C75.6433351,34.0753556 74.3991157,32.700718 73.9292443,31.5836702 L75.5593847,30.9112124 C75.8525845,31.5985312 76.56303,32.4158832 77.7082632,32.4158832 C79.1128655,32.4158832 79.9836938,31.5502331 79.9836938,29.9390588 L79.9836938,29.3347137 L79.9210442,29.3347137 C79.5000395,29.8424627 78.6968726,30.2920063 77.6794445,30.2920063 C75.5443489,30.2920063 73.5921899,28.4542026 73.5921899,26.0925506 C73.5921899,23.717276 75.5443489,21.8646114 77.6794445,21.8646114 C78.6968726,21.8646114 79.5000395,22.3104398 79.9210442,22.8033278 L79.9836938,22.8033278 L79.9836938,22.8033278 Z M77.8398272,28.632534 C79.1128655,28.632534 80.1165107,27.5637843 80.1165107,26.0925506 C80.1165107,24.6076944 79.1128655,23.5240837 77.8398272,23.5240837 C76.5479942,23.5240837 75.4666635,24.6076944 75.4666635,26.0925506 C75.4666635,27.5637843 76.5479942,28.632534 77.8398272,28.632534 L77.8398272,28.632534 Z M102.278152,17.6515331 C104.349345,17.6515331 106.390466,19.1363893 106.390466,21.496803 C106.390466,23.858455 104.354357,25.3433112 102.278152,25.3433112 L99.6644136,25.3433112 L99.6644136,30.035655 L97.7949519,30.035655 L97.7949519,17.6515331 L102.278152,17.6515331 L102.278152,17.6515331 Z M102.327018,23.6206799 C103.722849,23.6206799 104.519751,22.455334 104.519751,21.496803 C104.519751,20.5196958 103.722849,19.3741645 102.327018,19.3741645 L99.6644136,19.3741645 L99.6644136,23.6206799 L102.327018,23.6206799 Z M113.883348,21.8410816 C116.032227,21.8410816 117.691186,23.0695864 117.691186,25.2652913 L117.691186,30.0158404 L115.885627,30.0158404 L115.885627,29.0585478 L115.821724,29.0585478 C115.385684,29.711191 114.691527,30.2721917 113.433525,30.2721917 C111.788348,30.2721917 110.324856,29.203442 110.324856,27.5439697 C110.324856,25.7296958 112.145451,24.7575423 113.932215,24.7575423 C114.823091,24.7575423 115.54732,25.0436155 115.885627,25.2368078 L115.885627,25.1067745 C115.870591,24.0900381 114.886994,23.5141764 113.917179,23.5141764 C113.223022,23.5141764 112.566455,23.7370906 112.209353,24.4244094 L110.550394,23.7370906 C111.128023,22.4305658 112.532625,21.8410816 113.883348,21.8410816 Z M113.65781,28.6275803 C114.740394,28.6275803 115.739027,27.8151819 115.885627,26.6684123 C115.385684,26.4318755 114.999763,26.2523058 114.176548,26.2523058 C113.256853,26.2523058 112.194317,26.6201142 112.194317,27.5786452 C112.194317,28.3278846 113.046351,28.6275803 113.65781,28.6275803 L113.65781,28.6275803 Z M124.269386,22.1122938 L126.34935,22.1122938 L121.205824,33.7892823 L119.252412,33.7892823 L121.156957,29.6145949 L117.818991,22.1122938 L119.835053,22.1122938 L122.056605,27.4808107 L122.120507,27.4808107 L124.269386,22.1122938 L124.269386,22.1122938 Z M107.417918,30.035655 L107.417918,17.6515331 L109.292392,17.6515331 L109.292392,30.035655 L107.417918,30.035655 Z" id="Shape" fill="#FFFFFF" fill-rule="nonzero"></path>
        <g id="g48" transform="translate(21.999283, 20.250892) scale(-1, 1) rotate(-180.000000) translate(-21.999283, -20.250892) translate(9.999283, 6.750892)" fill-rule="nonzero">
            <path d="M0.689031026,25.9682652 C0.394578287,25.6636158 0.224171596,25.1893039 0.224171596,24.5750514 L0.224171596,2.66506303 C0.224171596,2.05081058 0.394578287,1.57649871 0.689031026,1.27184932 L0.761704467,1.20497506 L13.183851,13.4776398 L13.183851,13.7674283 L0.761704467,26.0400931 L0.689031026,25.9682652 Z" id="path64" fill="url(#linearGradient-1)"></path>
            <path d="M17.3199723,9.38468756 L13.183851,13.4776398 L13.183851,13.7674283 L17.3249842,17.8603806 L17.4177055,17.8071288 L22.3219098,15.0491849 C23.7215001,14.2665084 23.7215001,12.9785597 22.3219098,12.1909296 L17.4177055,9.43793928 L17.3199723,9.38468756 L17.3199723,9.38468756 Z" id="path78" fill="url(#linearGradient-2)"></path>
            <path d="M17.4177055,9.43793928 L13.183851,13.6225341 L0.689031026,1.27184932 C1.15389045,0.788868563 1.91194963,0.730663191 2.77400701,1.21364394 L17.4177055,9.43793928" id="path88" fill="url(#linearGradient-3)"></path>
            <path d="M17.4177055,17.8071288 L2.77400701,26.0314242 C1.91194963,26.5094513 1.15389045,26.4512459 0.689031026,25.9682652 L13.183851,13.6225341 L17.4177055,17.8071288 Z" id="path104" fill="url(#linearGradient-4)"></path>
        </g>
    </g>
</svg>
