<?xml version="1.0" encoding="UTF-8" standalone="no"?>
<!DOCTYPE svg PUBLIC "-//W3C//DTD SVG 1.1//EN" "http://www.w3.org/Graphics/SVG/1.1/DTD/svg11.dtd">
<svg width="100%" height="100%" viewBox="0 0 512 512" version="1.1" xmlns="http://www.w3.org/2000/svg" xmlns:xlink="http://www.w3.org/1999/xlink" xml:space="preserve" xmlns:serif="http://www.serif.com/" style="fill-rule:evenodd;clip-rule:evenodd;stroke-linejoin:round;stroke-miterlimit:2;">
    <g transform="matrix(0.988142,0,0,0.992063,6,6)">
        <path d="M506,97.821C506,43.832 461.994,0 407.79,0L98.21,0C44.006,0 0,43.832 0,97.821L0,406.179C0,460.168 44.006,504 98.21,504L407.79,504C461.994,504 506,460.168 506,406.179L506,97.821Z" style="fill:white;"/>
    </g>
    <g transform="matrix(0.78125,0,0,0.78125,56,56)">
        <path d="M256,117.333C197.184,117.333 149.333,165.781 149.333,225.344C149.333,307.541 241.664,387.477 245.589,390.827C248.597,393.387 252.288,394.667 256,394.667C259.712,394.667 263.403,393.387 266.411,390.827C270.336,387.456 362.667,307.52 362.667,225.344C362.667,165.781 314.816,117.333 256,117.333ZM256,266.667C232.469,266.667 213.333,247.531 213.333,224C213.333,200.469 232.469,181.333 256,181.333C279.531,181.333 298.667,200.469 298.667,224C298.667,247.531 279.531,266.667 256,266.667Z" style="fill:rgb(125,133,137);fill-rule:nonzero;"/>
        <path d="M256,512C244.203,512 234.667,502.443 234.667,490.667L234.667,439.659C234.667,427.883 244.203,418.325 256,418.325C267.797,418.325 277.333,427.883 277.333,439.659L277.333,490.667C277.333,502.443 267.797,512 256,512Z" style="fill:rgb(125,133,137);fill-rule:nonzero;"/>
        <path d="M256,93.675C244.203,93.675 234.667,84.117 234.667,72.341L234.667,21.333C234.667,9.557 244.203,0 256,0C267.797,0 277.333,9.557 277.333,21.333L277.333,72.341C277.333,84.117 267.797,93.675 256,93.675Z" style="fill:rgb(125,133,137);fill-rule:nonzero;"/>
        <path d="M72.363,277.333L21.333,277.333C9.536,277.333 0,267.776 0,256C0,244.224 9.536,234.667 21.333,234.667L72.363,234.667C84.16,234.667 93.696,244.224 93.696,256C93.696,267.776 84.139,277.333 72.363,277.333Z" style="fill:rgb(125,133,137);fill-rule:nonzero;"/>
        <path d="M490.667,277.333L439.637,277.333C427.84,277.333 418.304,267.776 418.304,256C418.304,244.224 427.84,234.667 439.637,234.667L490.667,234.667C502.464,234.667 512,244.224 512,256C512,267.776 502.464,277.333 490.667,277.333Z" style="fill:rgb(125,133,137);fill-rule:nonzero;"/>
        <path d="M256,474.667C135.424,474.667 37.333,376.576 37.333,256C37.333,135.424 135.424,37.333 256,37.333C376.576,37.333 474.667,135.424 474.667,256C474.667,376.576 376.576,474.667 256,474.667ZM256,80C158.955,80 80,158.955 80,256C80,353.045 158.955,432 256,432C353.045,432 432,353.045 432,256C432,158.955 353.045,80 256,80Z" style="fill:rgb(125,133,137);fill-rule:nonzero;"/>
    </g>
</svg>
