<?xml version="1.0" encoding="UTF-8" standalone="no"?>
<!DOCTYPE svg PUBLIC "-//W3C//DTD SVG 1.1//EN" "http://www.w3.org/Graphics/SVG/1.1/DTD/svg11.dtd">
<svg width="100%" height="100%" viewBox="0 0 433 611" version="1.1" xmlns="http://www.w3.org/2000/svg" xmlns:xlink="http://www.w3.org/1999/xlink" xml:space="preserve" xmlns:serif="http://www.serif.com/" style="fill-rule:evenodd;clip-rule:evenodd;stroke-linejoin:round;stroke-miterlimit:2;">
    <g transform="matrix(1,0,0,1,-282,-194)">
        <path d="M704.638,411.638C704.638,619.836 500,793 500,793C500,793 295.362,619.836 295.362,411.638C295.362,298.62 386.981,207 500,207C613.019,207 704.638,298.62 704.638,411.638Z" style="fill:rgb(1,48,99);fill-rule:nonzero;"/>
        <path d="M645.608,411.638C645.608,492.055 580.417,557.246 500,557.246C419.583,557.246 354.392,492.055 354.392,411.638C354.392,331.221 419.583,266.03 500,266.03C580.417,266.03 645.608,331.221 645.608,411.638Z" style="fill:white;fill-rule:nonzero;"/>
        <g transform="matrix(1.05717,0,0,1.05717,-22.7133,-20.9082)">
            <g transform="matrix(1.28045,-0.73927,1.20216,2.08221,-15.8453,51.2388)">
                <path d="M214,199.75C214,198.784 212.725,198 211.154,198L121.846,198C120.275,198 119,198.784 119,199.75L119,203.25C119,204.216 120.275,205 121.846,205L211.154,205C212.725,205 214,204.216 214,203.25L214,199.75Z" style="fill:rgb(1,48,99);"/>
            </g>
            <g transform="matrix(1.26054,0.727772,-1.20216,2.08221,583.554,-193.424)">
                <path d="M214,199.75C214,198.784 212.705,198 211.109,198L121.891,198C120.295,198 119,198.784 119,199.75L119,203.25C119,204.216 120.295,205 121.891,205L211.109,205C212.705,205 214,204.216 214,203.25L214,199.75Z" style="fill:rgb(1,48,99);"/>
            </g>
        </g>
    </g>
</svg>
